# Blender 5.2.1 LTS
# www.blender.org
o Curve
v 2.254171 -0.447555 -0.297838
v -1.087771 -0.447555 -0.297838
v -1.087771 0.458560 -0.297838
v 2.254171 0.458560 -0.297838
v 2.593759 1.459133 -0.297838
v 2.197313 1.459133 -0.297838
v 2.197313 1.411929 -0.297838
v 2.593810 1.411929 -0.297838
v 2.593810 0.505814 -0.297838
v 2.537655 0.505814 -0.297838
v 2.537655 -0.504150 -0.297838
v 2.593810 -0.504150 -0.297838
v 2.593810 -1.410265 -0.297838
v 1.970737 -1.410265 -0.297838
v 1.970737 -1.466910 -0.297838
v 2.593759 -1.466910 -0.297838
v 2.593759 -2.373024 -0.297838
v -2.164249 -2.373024 -0.297838
v -2.164249 -1.466910 -0.297838
v -0.578263 -1.466910 -0.297838
v -0.578263 -1.410265 -0.297838
v -1.427862 -1.410265 -0.297838
v -1.427862 -0.504150 -0.297838
v -1.371256 -0.504150 -0.297838
v -1.371256 0.505814 -0.297838
v -1.427862 0.505814 -0.297838
v -1.427862 1.411929 -0.297838
v -0.804639 1.411929 -0.297838
v -0.804639 1.459133 -0.297838
v -2.164249 1.459133 -0.297838
v -2.164249 2.365248 -0.297838
v 2.593759 2.365248 -0.297838
v -0.125311 1.411929 -0.297838
v 0.554922 1.411929 -0.297838
v 0.554922 0.505814 -0.297838
v -1.144679 0.505814 -0.297838
v -1.144679 -0.504150 -0.297838
v 0.554922 -0.504150 -0.297838
v 0.554922 -1.410265 -0.297838
v -0.351686 -1.410265 -0.297838
v -0.351686 -1.466910 -0.297838
v 1.744160 -1.466910 -0.297838
v 1.744160 -1.410265 -0.297838
v 0.611528 -1.410265 -0.297838
v 0.611528 -0.504150 -0.297838
v 2.311079 -0.504150 -0.297838
v 2.311079 0.505814 -0.297838
v 0.611528 0.505814 -0.297838
v 0.611528 1.411929 -0.297838
v 1.517583 1.411929 -0.297838
v 1.517583 1.459133 -0.297838
v -0.125311 1.459133 -0.297838
v -1.484519 0.505814 -0.297838
v -1.541176 0.505814 -0.297838
v -1.541176 -0.504150 -0.297838
v -1.482359 -0.504150 -0.297838
v -1.482359 -1.410265 -0.297838
v -2.164249 -1.410265 -0.297838
v -2.164249 -0.504150 -0.297838
v -2.107591 -0.504150 -0.297838
v -2.107591 0.505814 -0.297838
v -2.164249 0.505814 -0.297838
v -2.164249 1.411929 -0.297838
v -1.484519 1.411929 -0.297838
v -1.881018 -0.504150 -0.297838
v -1.767751 -0.504150 -0.297838
v -1.767751 0.505814 -0.297838
v -1.881018 0.505814 -0.297838
v -1.087771 -0.447555 -0.297838
v -1.087771 0.458560 -0.297838
v 2.254171 0.458560 -0.297838
v 2.254171 -0.447555 -0.297838
v -2.164249 1.459133 -0.297838
v -2.164249 2.365248 -0.297838
v 2.593759 2.365248 -0.297838
v 2.593759 1.459133 -0.297838
v -0.804639 1.459133 -0.297838
v -0.804639 1.411929 -0.297838
v -0.125311 1.459133 -0.297838
v -0.125311 1.411929 -0.297838
v 1.517583 1.459133 -0.297838
v 1.517583 1.411929 -0.297838
v 2.197313 1.459133 -0.297838
v 2.197313 1.411929 -0.297838
v -1.427862 0.505814 -0.297838
v -1.427862 1.411929 -0.297838
v 0.554922 1.411929 -0.297838
v 0.554922 0.505814 -0.297838
v 0.611528 0.505814 -0.297838
v 0.611528 1.411929 -0.297838
v 2.593810 1.411929 -0.297838
v 2.593810 0.505814 -0.297838
v -1.371256 0.505814 -0.297838
v -1.371256 -0.504150 -0.297838
v -1.144679 0.505814 -0.297838
v -1.144679 -0.504150 -0.297838
v 2.311079 0.505814 -0.297838
v 2.311079 -0.504150 -0.297838
v 2.537655 0.505814 -0.297838
v 2.537655 -0.504150 -0.297838
v -1.427862 -1.410265 -0.297838
v -1.427862 -0.504150 -0.297838
v 0.554922 -0.504150 -0.297838
v 0.554922 -1.410265 -0.297838
v 0.611528 -1.410265 -0.297838
v 0.611528 -0.504150 -0.297838
v 2.593810 -0.504150 -0.297838
v 2.593810 -1.410265 -0.297838
v -0.578263 -1.410265 -0.297838
v -0.578263 -1.466910 -0.297838
v -0.351686 -1.410265 -0.297838
v -0.351686 -1.466910 -0.297838
v 1.744160 -1.410265 -0.297838
v 1.744160 -1.466910 -0.297838
v 1.970737 -1.410265 -0.297838
v 1.970737 -1.466910 -0.297838
v -2.164249 -2.373024 -0.297838
v -2.164249 -1.466910 -0.297838
v 2.593759 -1.466910 -0.297838
v 2.593759 -2.373024 -0.297838
v -2.164249 0.505814 -0.297838
v -2.164249 1.411929 -0.297838
v -1.484519 1.411929 -0.297838
v -1.484519 0.505814 -0.297838
v -2.107591 0.505814 -0.297838
v -2.107591 -0.504150 -0.297838
v -1.881018 0.505814 -0.297838
v -1.881018 -0.504150 -0.297838
v -1.767751 0.505814 -0.297838
v -1.767751 -0.504150 -0.297838
v -1.541176 0.505814 -0.297838
v -1.541176 -0.504150 -0.297838
v -2.164249 -1.410265 -0.297838
v -2.164249 -0.504150 -0.297838
v -1.482359 -0.504150 -0.297838
v -1.482359 -1.410265 -0.297838
v -1.087771 -0.447555 0.595675
v -1.087771 0.458560 0.595675
v 2.254171 0.458560 0.595675
v 2.254171 -0.447555 0.595675
v -2.164249 1.459133 0.595675
v -2.164249 2.365248 0.595675
v 2.593759 2.365248 0.595675
v 2.593759 1.459133 0.595675
v -0.804639 1.459133 0.595675
v -0.804639 1.411929 0.595675
v -0.125311 1.459133 0.595675
v -0.125311 1.411929 0.595675
v 1.517583 1.459133 0.595675
v 1.517583 1.411929 0.595675
v 2.197313 1.459133 0.595675
v 2.197313 1.411929 0.595675
v -1.427862 0.505814 0.595675
v -1.427862 1.411929 0.595675
v 0.554922 1.411929 0.595675
v 0.554922 0.505814 0.595675
v 0.611528 0.505814 0.595675
v 0.611528 1.411929 0.595675
v 2.593810 1.411929 0.595675
v 2.593810 0.505814 0.595675
v -1.371256 0.505814 0.595675
v -1.371256 -0.504150 0.595675
v -1.144679 0.505814 0.595675
v -1.144679 -0.504150 0.595675
v 2.311079 0.505814 0.595675
v 2.311079 -0.504150 0.595675
v 2.537655 0.505814 0.595675
v 2.537655 -0.504150 0.595675
v -1.427862 -1.410265 0.595675
v -1.427862 -0.504150 0.595675
v 0.554922 -0.504150 0.595675
v 0.554922 -1.410265 0.595675
v 0.611528 -1.410265 0.595675
v 0.611528 -0.504150 0.595675
v 2.593810 -0.504150 0.595675
v 2.593810 -1.410265 0.595675
v -0.578263 -1.410265 0.595675
v -0.578263 -1.466910 0.595675
v -0.351686 -1.410265 0.595675
v -0.351686 -1.466910 0.595675
v 1.744160 -1.410265 0.595675
v 1.744160 -1.466910 0.595675
v 1.970737 -1.410265 0.595675
v 1.970737 -1.466910 0.595675
v -2.164249 -2.373024 0.595675
v -2.164249 -1.466910 0.595675
v 2.593759 -1.466910 0.595675
v 2.593759 -2.373024 0.595675
v -2.164249 0.505814 0.595675
v -2.164249 1.411929 0.595675
v -1.484519 1.411929 0.595675
v -1.484519 0.505814 0.595675
v -2.107591 0.505814 0.595675
v -2.107591 -0.504150 0.595675
v -1.881018 0.505814 0.595675
v -1.881018 -0.504150 0.595675
v -1.767751 0.505814 0.595675
v -1.767751 -0.504150 0.595675
v -1.541176 0.505814 0.595675
v -1.541176 -0.504150 0.595675
v -2.164249 -1.410265 0.595675
v -2.164249 -0.504150 0.595675
v -1.482359 -0.504150 0.595675
v -1.482359 -1.410265 0.595675
vn -0.0000 -0.0000 -1.0000
vn -0.0000 -0.0000 1.0000
vn -0.0000 1.0000 -0.0000
vn 1.0000 -0.0000 -0.0000
vn -0.0000 -1.0000 -0.0000
vn -1.0000 -0.0000 -0.0000
vt 0.333333 0.000000
vt 0.666667 0.000000
vt 1.000000 0.000000
vt 0.000000 0.000000
vt 0.531915 0.000000
vt 0.553191 0.000000
vt 0.574468 0.000000
vt 0.510638 0.000000
vt 0.489362 0.000000
vt 0.595745 0.000000
vt 0.978723 0.000000
vt 0.957447 0.000000
vt 0.021277 0.000000
vt 0.042553 0.000000
vt 0.446809 0.000000
vt 0.468085 0.000000
vt 0.617021 0.000000
vt 0.638298 0.000000
vt 0.914894 0.000000
vt 0.936170 0.000000
vt 0.063830 0.000000
vt 0.085106 0.000000
vt 0.425532 0.000000
vt 0.404255 0.000000
vt 0.659574 0.000000
vt 0.680851 0.000000
vt 0.893617 0.000000
vt 0.872340 0.000000
vt 0.106383 0.000000
vt 0.127660 0.000000
vt 0.361702 0.000000
vt 0.382979 0.000000
vt 0.702128 0.000000
vt 0.723404 0.000000
vt 0.829787 0.000000
vt 0.851064 0.000000
vt 0.148936 0.000000
vt 0.170213 0.000000
vt 0.340426 0.000000
vt 0.319149 0.000000
vt 0.744681 0.000000
vt 0.765957 0.000000
vt 0.808511 0.000000
vt 0.787234 0.000000
vt 0.191489 0.000000
vt 0.212766 0.000000
vt 0.276596 0.000000
vt 0.297872 0.000000
vt 0.234043 0.000000
vt 0.255319 0.000000
vt 0.600000 0.000000
vt 0.733333 0.000000
vt 0.533333 0.000000
vt 0.466667 0.000000
vt 0.800000 0.000000
vt 0.933333 0.000000
vt 0.866667 0.000000
vt 0.066667 0.000000
vt 0.133333 0.000000
vt 0.400000 0.000000
vt 0.200000 0.000000
vt 0.266667 0.000000
vt 0.379919 0.000000
vt 2.958713 0.000000
vt -0.537146 0.000000
vt 0.452275 0.000000
vt 2.415178 0.000000
vt 0.203458 0.000000
vt -0.088725 0.000000
vt 0.516687 0.000000
vt 2.362241 0.000000
vt 0.452921 0.000000
vt -1.505286 0.000000
vt 0.549988 0.000000
vt 1.816658 0.000000
vt -0.150050 0.000000
s 0
f 2/1/1 3/2/1 4/3/1
f 2/1/1 4/3/1 1/4/1
f 30/5/1 31/6/1 32/7/1
f 30/5/1 32/7/1 5/4/1
f 29/8/2 30/5/2 5/4/2
f 28/9/1 29/8/1 52/3/1
f 52/3/1 29/8/1 5/4/1
f 28/9/1 52/3/1 33/10/1
f 51/11/2 52/3/2 5/4/2
f 50/12/1 51/11/1 6/13/1
f 6/13/1 51/11/1 5/4/1
f 50/12/1 6/13/1 7/14/1
f 26/15/1 27/16/1 28/9/1
f 26/15/1 28/9/1 33/10/1
f 26/15/1 33/10/1 34/17/1
f 26/15/1 34/17/1 35/18/1
f 48/19/1 49/20/1 50/12/1
f 48/19/1 50/12/1 7/14/1
f 48/19/1 7/14/1 8/21/1
f 48/19/1 8/21/1 9/22/1
f 25/23/2 26/15/2 35/18/2
f 24/24/1 25/23/1 36/25/1
f 36/25/1 25/23/1 35/18/1
f 24/24/1 36/25/1 37/26/1
f 47/27/2 48/19/2 9/22/2
f 46/28/1 47/27/1 10/29/1
f 10/29/2 47/27/2 9/22/2
f 46/28/1 10/29/1 11/30/1
f 22/31/1 23/32/1 24/24/1
f 22/31/1 24/24/1 37/26/1
f 22/31/1 37/26/1 38/33/1
f 22/31/1 38/33/1 39/34/1
f 44/35/1 45/36/1 46/28/1
f 44/35/1 46/28/1 11/30/1
f 44/35/1 11/30/1 12/37/1
f 44/35/1 12/37/1 13/38/1
f 21/39/1 22/31/1 39/34/1
f 20/40/1 21/39/1 40/41/1
f 40/41/2 21/39/2 39/34/2
f 20/40/1 40/41/1 41/42/1
f 43/43/2 44/35/2 13/38/2
f 42/44/1 43/43/1 14/45/1
f 14/45/2 43/43/2 13/38/2
f 42/44/1 14/45/1 15/46/1
f 18/47/1 19/48/1 20/40/1
f 18/47/1 20/40/1 41/42/1
f 18/47/1 41/42/1 42/44/1
f 18/47/1 42/44/1 15/46/1
f 18/47/1 15/46/1 16/49/1
f 18/47/1 16/49/1 17/50/1
f 62/51/1 63/2/1 64/52/1
f 62/51/1 64/52/1 53/4/1
f 61/53/1 62/51/1 53/4/1
f 60/54/1 61/53/1 68/3/1
f 68/3/2 61/53/2 53/4/2
f 60/54/1 68/3/1 65/55/1
f 67/56/1 68/3/1 53/4/1
f 66/57/1 67/56/1 54/58/1
f 54/58/2 67/56/2 53/4/2
f 66/57/1 54/58/1 55/59/1
f 58/1/1 59/60/1 60/54/1
f 58/1/1 60/54/1 65/55/1
f 58/1/1 65/55/1 66/57/1
f 58/1/1 66/57/1 55/59/1
f 58/1/1 55/59/1 56/61/1
f 58/1/1 56/61/1 57/62/1
f 103/33/3 96/26/3 164/26/3 171/33/3
f 116/46/4 115/45/4 183/45/4 184/46/4
f 73/5/5 77/8/5 145/8/5 141/5/5
f 82/12/3 90/20/3 158/20/3 150/12/3
f 127/3/5 129/56/5 197/56/5 195/3/5
f 76/4/4 75/7/4 143/7/4 144/4/4
f 115/45/5 108/38/5 176/38/5 183/45/5
f 128/55/4 127/3/4 195/3/4 196/55/4
f 90/20/6 89/19/6 157/19/6 158/20/6
f 94/24/3 102/32/3 170/32/3 162/24/3
f 75/7/3 74/6/3 142/6/3 143/7/3
f 88/18/4 87/17/4 155/17/4 156/18/4
f 102/32/6 101/31/6 169/31/6 170/32/6
f 113/43/6 114/44/6 182/44/6 181/43/6
f 74/6/6 73/5/6 141/5/6 142/6/6
f 87/17/3 80/10/3 148/10/3 155/17/3
f 100/30/4 99/29/4 167/29/4 168/30/4
f 72/4/4 71/3/4 139/3/4 140/4/4
f 105/35/5 113/43/5 181/43/5 173/35/5
f 125/53/6 126/54/6 194/54/6 193/53/6
f 69/1/5 72/4/5 140/4/5 137/1/5
f 99/29/5 92/22/5 160/22/5 167/29/5
f 112/42/4 111/41/4 179/41/4 180/42/4
f 71/3/3 70/2/3 138/2/3 139/3/3
f 78/9/3 86/16/3 154/16/3 146/9/3
f 121/51/5 125/53/5 193/53/5 189/51/5
f 136/62/4 135/61/4 203/61/4 204/62/4
f 111/41/5 104/34/5 172/34/5 179/41/5
f 124/4/4 123/52/4 191/52/4 192/4/4
f 70/2/6 69/1/6 137/1/6 138/2/6
f 133/1/5 136/62/5 204/62/5 201/1/5
f 86/16/6 85/15/6 153/15/6 154/16/6
f 97/27/6 98/28/6 166/28/6 165/27/6
f 135/61/3 132/59/3 200/59/3 203/61/3
f 84/14/4 83/13/4 151/13/4 152/14/4
f 123/52/3 122/2/3 190/2/3 191/52/3
f 89/19/5 97/27/5 165/27/5 157/19/5
f 109/39/6 110/40/6 178/40/6 177/39/6
f 83/13/5 76/4/5 144/4/5 151/13/5
f 96/26/4 95/25/4 163/25/4 164/26/4
f 122/2/6 121/51/6 189/51/6 190/2/6
f 130/57/3 128/55/3 196/55/3 198/57/3
f 101/31/5 109/39/5 177/39/5 169/31/5
f 120/50/4 119/49/4 187/49/4 188/50/4
f 95/25/5 88/18/5 156/18/5 163/25/5
f 108/38/4 107/37/4 175/37/4 176/38/4
f 117/47/5 120/50/5 188/50/5 185/47/5
f 81/11/6 82/12/6 150/12/6 149/11/6
f 119/49/3 116/46/3 184/46/3 187/49/3
f 126/54/3 134/60/3 202/60/3 194/54/3
f 107/37/3 100/30/3 168/30/3 175/37/3
f 79/3/5 81/11/5 149/11/5 147/3/5
f 93/23/6 94/24/6 162/24/6 161/23/6
f 134/60/6 133/1/6 201/1/6 202/60/6
f 80/10/4 79/3/4 147/3/4 148/10/4
f 114/44/3 112/42/3 180/42/3 182/44/3
f 132/59/4 131/58/4 199/58/4 200/59/4
f 85/15/5 93/23/5 161/23/5 153/15/5
f 98/28/3 106/36/3 174/36/3 166/28/3
f 92/22/4 91/21/4 159/21/4 160/22/4
f 131/58/5 124/4/5 192/4/5 199/58/5
f 106/36/6 105/35/6 173/35/6 174/36/6
f 110/40/3 118/48/3 186/48/3 178/40/3
f 91/21/3 84/14/3 152/14/3 159/21/3
f 104/34/4 103/33/4 171/33/4 172/34/4
f 77/8/6 78/9/6 146/9/6 145/8/6
f 54/58/2 53/4/2 124/4/2 131/58/2
f 9/22/2 8/21/2 91/21/2 92/22/2
f 46/28/2 45/36/2 106/36/2 98/28/2
f 26/15/2 25/23/2 93/23/2 85/15/2
f 55/59/2 54/58/2 131/58/2 132/59/2
f 42/44/2 41/42/2 112/42/2 114/44/2
f 33/10/2 52/3/2 79/3/2 80/10/2
f 59/60/2 58/1/2 133/1/2 134/60/2
f 25/23/2 24/24/2 94/24/2 93/23/2
f 52/3/2 51/11/2 81/11/2 79/3/2
f 12/37/2 11/30/2 100/30/2 107/37/2
f 60/54/2 59/60/2 134/60/2 126/54/2
f 16/49/2 15/46/2 116/46/2 119/49/2
f 51/11/2 50/12/2 82/12/2 81/11/2
f 18/47/2 17/50/2 120/50/2 117/47/2
f 13/38/2 12/37/2 107/37/2 108/38/2
f 36/25/2 35/18/2 88/18/2 95/25/2
f 17/50/2 16/49/2 119/49/2 120/50/2
f 22/31/2 21/39/2 109/39/2 101/31/2
f 66/57/2 65/55/2 128/55/2 130/57/2
f 63/2/2 62/51/2 121/51/2 122/2/2
f 37/26/2 36/25/2 95/25/2 96/26/2
f 6/13/2 5/4/2 76/4/2 83/13/2
f 21/39/2 20/40/2 110/40/2 109/39/2
f 48/19/2 47/27/2 97/27/2 89/19/2
f 64/52/2 63/2/2 122/2/2 123/52/2
f 7/14/2 6/13/2 83/13/2 84/14/2
f 56/61/2 55/59/2 132/59/2 135/61/2
f 47/27/2 46/28/2 98/28/2 97/27/2
f 27/16/2 26/15/2 85/15/2 86/16/2
f 58/1/2 57/62/2 136/62/2 133/1/2
f 3/2/2 2/1/2 69/1/2 70/2/2
f 53/4/2 64/52/2 123/52/2 124/4/2
f 40/41/2 39/34/2 104/34/2 111/41/2
f 57/62/2 56/61/2 135/61/2 136/62/2
f 62/51/2 61/53/2 125/53/2 121/51/2
f 28/9/2 27/16/2 86/16/2 78/9/2
f 4/3/2 3/2/2 70/2/2 71/3/2
f 41/42/2 40/41/2 111/41/2 112/42/2
f 10/29/2 9/22/2 92/22/2 99/29/2
f 2/1/2 1/4/2 72/4/2 69/1/2
f 61/53/2 60/54/2 126/54/2 125/53/2
f 44/35/2 43/43/2 113/43/2 105/35/2
f 1/4/2 4/3/2 71/3/2 72/4/2
f 11/30/2 10/29/2 99/29/2 100/30/2
f 34/17/2 33/10/2 80/10/2 87/17/2
f 31/6/2 30/5/2 73/5/2 74/6/2
f 43/43/2 42/44/2 114/44/2 113/43/2
f 23/32/2 22/31/2 101/31/2 102/32/2
f 35/18/2 34/17/2 87/17/2 88/18/2
f 32/7/2 31/6/2 74/6/2 75/7/2
f 24/24/2 23/32/2 102/32/2 94/24/2
f 49/20/2 48/19/2 89/19/2 90/20/2
f 65/55/2 68/3/2 127/3/2 128/55/2
f 14/45/2 13/38/2 108/38/2 115/45/2
f 5/4/2 32/7/2 75/7/2 76/4/2
f 68/3/2 67/56/2 129/56/2 127/3/2
f 50/12/2 49/20/2 90/20/2 82/12/2
f 30/5/2 29/8/2 77/8/2 73/5/2
f 15/46/2 14/45/2 115/45/2 116/46/2
f 38/33/2 37/26/2 96/26/2 103/33/2
f 67/56/2 66/57/2 130/57/2 129/56/2
f 19/48/2 18/47/2 117/47/2 118/48/2
f 29/8/2 28/9/2 78/9/2 77/8/2
f 39/34/2 38/33/2 103/33/2 104/34/2
f 8/21/2 7/14/2 84/14/2 91/21/2
f 20/40/2 19/48/2 118/48/2 110/40/2
f 45/36/2 44/35/2 105/35/2 106/36/2
f 137/1/2 139/3/2 138/2/2
f 137/1/2 140/4/2 139/3/2
f 141/5/2 143/7/2 142/6/2
f 141/5/2 144/4/2 143/7/2
f 145/63/2 144/4/2 141/5/2
f 146/9/2 147/3/2 145/8/2
f 147/3/2 144/64/2 145/8/2
f 146/9/2 148/10/2 147/3/2
f 149/11/1 144/4/1 147/3/1
f 150/12/2 151/13/2 149/11/2
f 151/13/2 144/65/2 149/11/2
f 150/12/2 152/14/2 151/13/2
f 153/15/2 146/9/2 154/16/2
f 153/15/2 148/10/2 146/9/2
f 153/15/2 155/17/2 148/10/2
f 153/15/2 156/18/2 155/17/2
f 157/19/2 150/12/2 158/20/2
f 157/19/2 152/14/2 150/12/2
f 157/19/2 159/21/2 152/14/2
f 157/19/2 160/22/2 159/21/2
f 161/66/1 156/18/1 153/15/1
f 162/24/2 163/25/2 161/23/2
f 163/25/2 156/67/2 161/23/2
f 162/24/2 164/26/2 163/25/2
f 165/68/2 160/22/2 157/19/2
f 166/28/2 167/29/2 165/27/2
f 167/29/2 160/69/2 165/27/2
f 166/28/2 168/30/2 167/29/2
f 169/31/2 162/24/2 170/32/2
f 169/31/2 164/26/2 162/24/2
f 169/31/2 171/33/2 164/26/2
f 169/31/2 172/34/2 171/33/2
f 173/35/2 166/28/2 174/36/2
f 173/35/2 168/30/2 166/28/2
f 173/35/2 175/37/2 168/30/2
f 173/35/2 176/38/2 175/37/2
f 177/70/2 172/34/2 169/31/2
f 178/40/2 179/41/2 177/39/2
f 179/41/2 172/71/2 177/39/2
f 178/40/2 180/42/2 179/41/2
f 181/72/2 176/38/2 173/35/2
f 182/44/2 183/45/2 181/43/2
f 183/45/2 176/73/2 181/43/2
f 182/44/2 184/46/2 183/45/2
f 185/47/2 178/40/2 186/48/2
f 185/47/2 180/42/2 178/40/2
f 185/47/2 182/44/2 180/42/2
f 185/47/2 184/46/2 182/44/2
f 185/47/2 187/49/2 184/46/2
f 185/47/2 188/50/2 187/49/2
f 189/51/2 191/52/2 190/2/2
f 189/51/2 192/4/2 191/52/2
f 193/74/2 192/4/2 189/51/2
f 194/54/2 195/3/2 193/53/2
f 195/3/1 192/75/1 193/53/1
f 194/54/2 196/55/2 195/3/2
f 197/56/2 192/4/2 195/3/2
f 198/57/2 199/58/2 197/56/2
f 199/58/2 192/76/2 197/56/2
f 198/57/2 200/59/2 199/58/2
f 201/1/2 194/54/2 202/60/2
f 201/1/2 196/55/2 194/54/2
f 201/1/2 198/57/2 196/55/2
f 201/1/2 200/59/2 198/57/2
f 201/1/2 203/61/2 200/59/2
f 201/1/2 204/62/2 203/61/2
f 129/56/6 130/57/6 198/57/6 197/56/6
f 118/48/6 117/47/6 185/47/6 186/48/6
